<svg id="wave" style="transform:rotate(0deg); transition: 0.3s" viewBox="0 0 1440 490" version="1.1" xmlns="http://www.w3.org/2000/svg"><defs><linearGradient id="sw-gradient-0" x1="0" x2="0" y1="1" y2="0"><stop stop-color="rgba(243, 106, 62, 1)" offset="0%"></stop><stop stop-color="rgba(255, 179, 11, 1)" offset="100%"></stop></linearGradient></defs><path style="transform:translate(0, 0px); opacity:1" fill="url(#sw-gradient-0)" d="M0,147L60,130.7C120,114,240,82,360,65.3C480,49,600,49,720,57.2C840,65,960,82,1080,147C1200,212,1320,327,1440,383.8C1560,441,1680,441,1800,432.8C1920,425,2040,408,2160,351.2C2280,294,2400,196,2520,187.8C2640,180,2760,261,2880,294C3000,327,3120,310,3240,318.5C3360,327,3480,359,3600,310.3C3720,261,3840,131,3960,98C4080,65,4200,131,4320,155.2C4440,180,4560,163,4680,171.5C4800,180,4920,212,5040,212.3C5160,212,5280,180,5400,147C5520,114,5640,82,5760,130.7C5880,180,6000,310,6120,334.8C6240,359,6360,278,6480,212.3C6600,147,6720,98,6840,138.8C6960,180,7080,310,7200,334.8C7320,359,7440,278,7560,253.2C7680,229,7800,261,7920,294C8040,327,8160,359,8280,359.3C8400,359,8520,327,8580,310.3L8640,294L8640,490L8580,490C8520,490,8400,490,8280,490C8160,490,8040,490,7920,490C7800,490,7680,490,7560,490C7440,490,7320,490,7200,490C7080,490,6960,490,6840,490C6720,490,6600,490,6480,490C6360,490,6240,490,6120,490C6000,490,5880,490,5760,490C5640,490,5520,490,5400,490C5280,490,5160,490,5040,490C4920,490,4800,490,4680,490C4560,490,4440,490,4320,490C4200,490,4080,490,3960,490C3840,490,3720,490,3600,490C3480,490,3360,490,3240,490C3120,490,3000,490,2880,490C2760,490,2640,490,2520,490C2400,490,2280,490,2160,490C2040,490,1920,490,1800,490C1680,490,1560,490,1440,490C1320,490,1200,490,1080,490C960,490,840,490,720,490C600,490,480,490,360,490C240,490,120,490,60,490L0,490Z"></path><defs><linearGradient id="sw-gradient-1" x1="0" x2="0" y1="1" y2="0"><stop stop-color="rgba(243, 106, 62, 1)" offset="0%"></stop><stop stop-color="rgba(255, 179, 11, 1)" offset="100%"></stop></linearGradient></defs><path style="transform:translate(0, 50px); opacity:0.9" fill="url(#sw-gradient-1)" d="M0,147L60,122.5C120,98,240,49,360,57.2C480,65,600,131,720,147C840,163,960,131,1080,130.7C1200,131,1320,163,1440,187.8C1560,212,1680,229,1800,236.8C1920,245,2040,245,2160,228.7C2280,212,2400,180,2520,196C2640,212,2760,278,2880,285.8C3000,294,3120,245,3240,253.2C3360,261,3480,327,3600,351.2C3720,376,3840,359,3960,367.5C4080,376,4200,408,4320,408.3C4440,408,4560,376,4680,326.7C4800,278,4920,212,5040,220.5C5160,229,5280,310,5400,351.2C5520,392,5640,392,5760,326.7C5880,261,6000,131,6120,138.8C6240,147,6360,294,6480,351.2C6600,408,6720,376,6840,375.7C6960,376,7080,408,7200,400.2C7320,392,7440,343,7560,294C7680,245,7800,196,7920,147C8040,98,8160,49,8280,40.8C8400,33,8520,65,8580,81.7L8640,98L8640,490L8580,490C8520,490,8400,490,8280,490C8160,490,8040,490,7920,490C7800,490,7680,490,7560,490C7440,490,7320,490,7200,490C7080,490,6960,490,6840,490C6720,490,6600,490,6480,490C6360,490,6240,490,6120,490C6000,490,5880,490,5760,490C5640,490,5520,490,5400,490C5280,490,5160,490,5040,490C4920,490,4800,490,4680,490C4560,490,4440,490,4320,490C4200,490,4080,490,3960,490C3840,490,3720,490,3600,490C3480,490,3360,490,3240,490C3120,490,3000,490,2880,490C2760,490,2640,490,2520,490C2400,490,2280,490,2160,490C2040,490,1920,490,1800,490C1680,490,1560,490,1440,490C1320,490,1200,490,1080,490C960,490,840,490,720,490C600,490,480,490,360,490C240,490,120,490,60,490L0,490Z"></path><defs><linearGradient id="sw-gradient-2" x1="0" x2="0" y1="1" y2="0"><stop stop-color="rgba(243, 106, 62, 1)" offset="0%"></stop><stop stop-color="rgba(255, 179, 11, 1)" offset="100%"></stop></linearGradient></defs><path style="transform:translate(0, 100px); opacity:0.8" fill="url(#sw-gradient-2)" d="M0,0L60,49C120,98,240,196,360,220.5C480,245,600,196,720,204.2C840,212,960,278,1080,277.7C1200,278,1320,212,1440,196C1560,180,1680,212,1800,245C1920,278,2040,310,2160,294C2280,278,2400,212,2520,220.5C2640,229,2760,310,2880,302.2C3000,294,3120,196,3240,204.2C3360,212,3480,327,3600,326.7C3720,327,3840,212,3960,163.3C4080,114,4200,131,4320,179.7C4440,229,4560,310,4680,302.2C4800,294,4920,196,5040,179.7C5160,163,5280,229,5400,285.8C5520,343,5640,392,5760,392C5880,392,6000,343,6120,334.8C6240,327,6360,359,6480,326.7C6600,294,6720,196,6840,171.5C6960,147,7080,196,7200,204.2C7320,212,7440,180,7560,179.7C7680,180,7800,212,7920,253.2C8040,294,8160,343,8280,343C8400,343,8520,294,8580,269.5L8640,245L8640,490L8580,490C8520,490,8400,490,8280,490C8160,490,8040,490,7920,490C7800,490,7680,490,7560,490C7440,490,7320,490,7200,490C7080,490,6960,490,6840,490C6720,490,6600,490,6480,490C6360,490,6240,490,6120,490C6000,490,5880,490,5760,490C5640,490,5520,490,5400,490C5280,490,5160,490,5040,490C4920,490,4800,490,4680,490C4560,490,4440,490,4320,490C4200,490,4080,490,3960,490C3840,490,3720,490,3600,490C3480,490,3360,490,3240,490C3120,490,3000,490,2880,490C2760,490,2640,490,2520,490C2400,490,2280,490,2160,490C2040,490,1920,490,1800,490C1680,490,1560,490,1440,490C1320,490,1200,490,1080,490C960,490,840,490,720,490C600,490,480,490,360,490C240,490,120,490,60,490L0,490Z"></path><defs><linearGradient id="sw-gradient-3" x1="0" x2="0" y1="1" y2="0"><stop stop-color="rgba(127.82, 112.219, 107.208, 1)" offset="0%"></stop><stop stop-color="rgba(255, 179, 11, 1)" offset="100%"></stop></linearGradient></defs><path style="transform:translate(0, 150px); opacity:0.7" fill="url(#sw-gradient-3)" d="M0,392L60,375.7C120,359,240,327,360,326.7C480,327,600,359,720,334.8C840,310,960,229,1080,204.2C1200,180,1320,212,1440,245C1560,278,1680,310,1800,310.3C1920,310,2040,278,2160,269.5C2280,261,2400,278,2520,302.2C2640,327,2760,359,2880,367.5C3000,376,3120,359,3240,334.8C3360,310,3480,278,3600,269.5C3720,261,3840,278,3960,245C4080,212,4200,131,4320,89.8C4440,49,4560,49,4680,106.2C4800,163,4920,278,5040,269.5C5160,261,5280,131,5400,81.7C5520,33,5640,65,5760,73.5C5880,82,6000,65,6120,98C6240,131,6360,212,6480,269.5C6600,327,6720,359,6840,343C6960,327,7080,261,7200,236.8C7320,212,7440,229,7560,212.3C7680,196,7800,147,7920,147C8040,147,8160,196,8280,253.2C8400,310,8520,376,8580,408.3L8640,441L8640,490L8580,490C8520,490,8400,490,8280,490C8160,490,8040,490,7920,490C7800,490,7680,490,7560,490C7440,490,7320,490,7200,490C7080,490,6960,490,6840,490C6720,490,6600,490,6480,490C6360,490,6240,490,6120,490C6000,490,5880,490,5760,490C5640,490,5520,490,5400,490C5280,490,5160,490,5040,490C4920,490,4800,490,4680,490C4560,490,4440,490,4320,490C4200,490,4080,490,3960,490C3840,490,3720,490,3600,490C3480,490,3360,490,3240,490C3120,490,3000,490,2880,490C2760,490,2640,490,2520,490C2400,490,2280,490,2160,490C2040,490,1920,490,1800,490C1680,490,1560,490,1440,490C1320,490,1200,490,1080,490C960,490,840,490,720,490C600,490,480,490,360,490C240,490,120,490,60,490L0,490Z"></path></svg>